<?xml version="1.0" encoding="UTF-8"?>
<svg id="_レイヤー_2" data-name="レイヤー 2" xmlns="http://www.w3.org/2000/svg" viewBox="0 0 189.29 55.59">
  <g id="_レイヤー_1-2" data-name="レイヤー 1">
    <g>
      <path d="M15.95,54.68V10.01H0V.91H42.73V10.01h-15.92V54.68H15.95Z" fill="#ffffff"/>
      <path d="M95.21,54.68h-11.81l-4.69-12.21h-21.5l-4.44,12.21h-11.52L62.19,.92h11.48l21.54,53.76Zm-19.99-21.27l-7.41-19.95-7.26,19.95h14.67Z"
            fill="#ffffff"/>
      <path d="M99.76,54.68V1.36h10.86V45.63h26.99v9.06h-37.85Z" fill="#ffffff"/>
      <path d="M137.13,28.13c0-5.48,.82-10.07,2.46-13.79,1.22-2.74,2.89-5.2,5.01-7.37,2.11-2.18,4.43-3.79,6.95-4.84,3.35-1.42,7.21-2.13,11.59-2.13,7.92,0,14.26,2.46,19.02,7.37,4.75,4.91,7.13,11.75,7.13,20.5s-2.36,15.47-7.08,20.37c-4.72,4.9-11.03,7.35-18.92,7.35s-14.35-2.44-19.07-7.32c-4.73-4.86-7.09-11.58-7.09-20.14Zm11.19-.37c0,6.09,1.41,10.7,4.22,13.84s6.38,4.71,10.71,4.71,7.88-1.56,10.65-4.68,4.16-7.79,4.16-14.03-1.35-10.76-4.05-13.79-6.29-4.55-10.76-4.55-8.08,1.53-10.82,4.6c-2.74,3.09-4.11,7.72-4.11,13.9Z"
            fill="#ffffff"/>
    </g>
  </g>
</svg>
