<?xml version="1.0" encoding="utf-8"?>
<!-- Generator: Adobe Illustrator 27.1.1, SVG Export Plug-In . SVG Version: 6.00 Build 0)  -->
<svg version="1.1" id="_レイヤー_2" xmlns="http://www.w3.org/2000/svg" xmlns:xlink="http://www.w3.org/1999/xlink" x="0px"
	 y="0px" width="189.3px" height="55.6px" viewBox="0 0 189.3 55.6" style="enable-background:new 0 0 189.3 55.6;"
	 xml:space="preserve">
<style type="text/css">
	.st0{fill:#006F4A;}
</style>
<g id="_レイヤー_1-2">
	<g>
		<path class="st0" d="M15.9,54.7V10H0V0.9h42.7V10H26.8v44.7H15.9z"/>
		<path class="st0" d="M95.2,54.7H83.4l-4.7-12.2H57.2l-4.4,12.2H41.2L62.2,0.9h11.5C73.7,0.9,95.2,54.7,95.2,54.7z M75.2,33.4
			l-7.4-20l-7.3,20C60.5,33.4,75.2,33.4,75.2,33.4z"/>
		<path class="st0" d="M99.8,54.7V1.4h10.9v44.3h27v9.1L99.8,54.7L99.8,54.7z"/>
		<path class="st0" d="M137.1,28.1c0-5.5,0.8-10.1,2.5-13.8c1.2-2.7,2.9-5.2,5-7.4c2.1-2.2,4.4-3.8,6.9-4.8
			c3.4-1.4,7.2-2.1,11.6-2.1c7.9,0,14.3,2.5,19,7.4c4.8,4.9,7.1,11.8,7.1,20.5s-2.4,15.5-7.1,20.4s-11,7.3-18.9,7.3
			s-14.4-2.4-19.1-7.3C139.5,43.4,137.1,36.7,137.1,28.1z M148.3,27.8c0,6.1,1.4,10.7,4.2,13.8s6.4,4.7,10.7,4.7s7.9-1.6,10.6-4.7
			s4.2-7.8,4.2-14s-1.4-10.8-4.1-13.8s-6.3-4.6-10.8-4.6s-8.1,1.5-10.8,4.6C149.7,16.9,148.3,21.6,148.3,27.8L148.3,27.8z"/>
	</g>
</g>
</svg>
